<svg width="45" height="46" viewBox="0 0 38 39" fill="#1a4088" xmlns="http://www.w3.org/2000/svg">
<path fill-rule="evenodd" clip-rule="evenodd" d="M19.0533 0.451614C8.97729 0.451614 0.796875 8.87949 0.796875 19.2613C0.796875 29.6435 8.97688 38.071 19.0533 38.071C29.1302 38.071 37.3098 29.6431 37.3098 19.2613C37.3098 8.87992 29.1298 0.451614 19.0533 0.451614ZM15.7586 11.3109C15.385 11.0613 14.9079 11.0438 14.5161 11.2632C14.1242 11.4827 13.881 11.9053 13.881 12.3644V26.1579C13.881 26.617 14.1241 27.0393 14.5161 27.2588C14.908 27.4782 15.385 27.4607 15.7586 27.2111L26.1044 20.3143C26.4514 20.0823 26.6605 19.6861 26.6605 19.2608C26.6605 18.8358 26.4514 18.4396 26.1044 18.2076L15.7586 11.3109Z" fill="#1a4088"/>
</svg>
