<svg width="100px" id="katman_2" data-name="katman 2" xmlns="http://www.w3.org/2000/svg" viewBox="0 0 1159.09 340.91">
  <g id="Layer_1" data-name="Layer 1">
    <g>
      <path class="cls-2" style="fill: #fff;" d="M414.38,139.7v-1.95c0-55.06,30.85-85.13,91.77-81.62v48.43c-27.73-1.95-41.4,8.98-41.4,33.19v1.95h41.4v48.43h-41.4v146.84h-50.38v-146.84"/>
      <path class="cls-2" style="fill: #fff;" d="M1076.3,208.63V61.79s48.16,0,48.16,0v146.84s0,48.43,0,48.43v1.95c0,24.21,8.13,35.15,34.63,33.19v48.43c-58.24,3.51-82.79-26.56-82.79-81.62v-1.95"/>
      <path class="cls-2" style="fill: #fff;" d="M780.54,287.71h86.7v47.25h-154.26v-33.58l82.4-114.42h-78.5v-47.25h146.45v33.59l-82.79,114.42Z"/>
      <path class="cls-2" style="fill: #fff;" d="M695.28,260.31c0,53.73-29.19,80.6-87.58,80.6s-83.95-25.18-83.95-75.54v-125.6h46.36v121.76c0,25.45,12.78,38.18,38.35,38.18,26.84,0,40.26-12.25,40.26-36.76v-123.17h46.56v120.55Z"/>
      <path class="cls-2" style="fill: #fff;" d="M1055.6,260.31c0,53.73-29.19,80.6-87.58,80.6s-83.95-25.18-83.95-75.54v-125.6h46.36v121.76c0,25.45,12.78,38.18,38.35,38.18,26.84,0,40.26-12.25,40.26-36.76v-123.17h46.56v120.55Z"/>
      <g>
        <g>
          <path class="cls-4" style="fill: #1ebec9;" d="M329.9,147.3L191.94,9.33c-12.44-12.44-32.69-12.44-45.13,0l-51.43,51.43,39.54,38.34c2.53,2.53,2.53,6.63,0,9.16l-37.21,37.21c-2.53,2.53-6.63,2.53-9.16,0l-39.54-38.34-40.17,40.17C.12,156.02-2.36,168.51,2.35,179.89c4.29,10.37,13.46,17.16,24.37,18.3v110.8c0,17.6,14.32,31.91,31.91,31.91h221.47c17.6,0,31.91-14.32,31.91-31.91v-110.8c10.91-1.13,20.07-7.93,24.37-18.3,4.72-11.39,2.23-23.88-6.48-32.6Z"/>
          <g>
            <path class="cls-1" style="fill: none;" d="M101.8,141.38l28.88-28.88c-.25-.05-.46-.09-.63-.12"/>
            <path class="cls-2" style="fill: #fff;" d="M262.89,122.02c.22-1.22-.75-2.32-1.98-2.32h-11.33c-13.09.32-51.23,2.22-82.45-1.6-19.22-2.35-32.64-4.88-36.46-5.6l-28.88,28.88,47.66,63.17c1.74,2.01,4.94,1.82,6.38-.41,1.16-1.8,2.01-3.75,2.52-5.76,1.34-5.29-.5-10.56-4.26-14.69-3.9-4.27-6.58-9.77-6.51-16.02.14-12.31,10.44-22.28,22.74-22.06,12.14.22,21.92,10.13,21.92,22.33,0,5.29-1.87,9.71-4.9,14.05-.9,1.28-1.7,2.62-2.39,4.03-.08.17-.17.34-.25.5-2.63,5.92-3.83,11.3-1,16.24,1.41,2.46,4.89,2.66,6.62.42,0,0,7.22-9.15,7.61-9.76,3.11-4.82,6.7-9.15,10.32-17.53,1.52-3.51,2.25-6.15,2.39-9.1.25-6.75-1.22-12.09-1.98-15.94,9.93,2.47,25.58,5.6,35.51,8.07,6.33,2.06,13.05-.72,16.04-6.29.58-1.09.01-2.44-1.16-2.82l-10.77-3.51-.02.06c-.67-.24-1.4-.5-2.21-.77-9.69-3-21.83-6.9-31.52-9.9l34.43-2.68c.41-.03.82-.04,1.24-.06,6.38-.28,11.61-4.9,12.69-10.93Z"/>
          </g>
          <rect class="cls-2" style="fill: #fff;" x="163.64" y="175.29" width="12.54" height="54.85" rx="6.24" ry="6.24"/>
          <rect class="cls-3" style="fill: #143f90;" x="91.45" y="257.45" width="154.26" height="20.51" rx="5.21" ry="5.21"/>
          <path class="cls-2" style="fill: #fff;" d="M195.15,278.13c1.01-2.87,1.59-5.96,1.58-9.18-.06-15.1-12.35-27.29-27.46-27.22-15.11.06-27.32,12.35-27.26,27.45.01,3.14.58,6.15,1.57,8.95h51.58Z"/>
        </g>
        <path class="cls-3" style="fill: #143f90;" d="M88.54,145.47l-39.59-38.39,46.37-46.37,39.59,38.39c2.53,2.53,2.53,6.63,0,9.16l-37.21,37.21c-2.53,2.53-6.63,2.53-9.16,0Z"/>
      </g>
    </g>
  </g>
</svg>